<?xml version="1.0" encoding="UTF-8" standalone="no"?>
<svg width="301.978mm" height="184.15mm"
 xmlns="http://www.w3.org/2000/svg" xmlns:xlink="http://www.w3.org/1999/xlink"  version="1.2" baseProfile="tiny">
<title>Qt Svg Document</title>
<desc>Generated with Qt</desc>
<defs>
</defs>
<g fill="none" stroke="black" stroke-width="1" fill-rule="evenodd" stroke-linecap="square" stroke-linejoin="bevel" >

<g fill="#808080" fill-opacity="1" stroke="none" transform="matrix(1,0,0,1,0,-76)"
font-family="Helvetica" font-size="8" font-weight="400" font-style="normal" 
>
<path vector-effect="non-scaling-stroke" fill-rule="evenodd" d="M842,443 C842,481.66 810.66,513 772,513 C733.34,513 702,481.66 702,443 C702,404.34 733.34,373 772,373 C810.66,373 842,404.34 842,443 "/>
</g>

<g fill="#ffffff" fill-opacity="1" stroke="#000000" stroke-opacity="1" stroke-width="1" stroke-linecap="square" stroke-linejoin="bevel" transform="matrix(1,0,0,1,0,-76)"
font-family="Helvetica" font-size="8" font-weight="400" font-style="normal" 
>
<path vector-effect="none" fill-rule="evenodd" d="M837,438 C837,476.66 805.66,508 767,508 C728.34,508 697,476.66 697,438 C697,399.34 728.34,368 767,368 C805.66,368 837,399.34 837,438 "/>
</g>

<g fill="none" stroke="#000000" stroke-opacity="1" stroke-width="1" stroke-linecap="square" stroke-linejoin="bevel" transform="matrix(1,0,0,1,0,-76)"
font-family="Helvetica" font-size="8" font-weight="400" font-style="normal" 
>
<text fill="#000000" fill-opacity="1" stroke="none" xml:space="preserve" x="746" y="441" font-family="Helvetica" font-size="8" font-weight="400" font-style="normal" 
 >vista_normal</text>
</g>

<g fill="#808080" fill-opacity="1" stroke="none" transform="matrix(1,0,0,1,0,-76)"
font-family="Helvetica" font-size="8" font-weight="400" font-style="normal" 
>
<path vector-effect="non-scaling-stroke" fill-rule="evenodd" d="M842,200 C842,238.66 810.66,270 772,270 C733.34,270 702,238.66 702,200 C702,161.34 733.34,130 772,130 C810.66,130 842,161.34 842,200 "/>
</g>

<g fill="#ffffff" fill-opacity="1" stroke="#000000" stroke-opacity="1" stroke-width="1" stroke-linecap="square" stroke-linejoin="bevel" transform="matrix(1,0,0,1,0,-76)"
font-family="Helvetica" font-size="8" font-weight="400" font-style="normal" 
>
<path vector-effect="none" fill-rule="evenodd" d="M837,195 C837,233.66 805.66,265 767,265 C728.34,265 697,233.66 697,195 C697,156.34 728.34,125 767,125 C805.66,125 837,156.34 837,195 "/>
</g>

<g fill="none" stroke="#000000" stroke-opacity="1" stroke-width="1" stroke-linecap="square" stroke-linejoin="bevel" transform="matrix(1,0,0,1,0,-76)"
font-family="Helvetica" font-size="8" font-weight="400" font-style="normal" 
>
<text fill="#000000" fill-opacity="1" stroke="none" xml:space="preserve" x="748" y="198" font-family="Helvetica" font-size="8" font-weight="400" font-style="normal" 
 >inicio/caida</text>
</g>

<g fill="#808080" fill-opacity="1" stroke="none" transform="matrix(1,0,0,1,0,-76)"
font-family="Helvetica" font-size="8" font-weight="400" font-style="normal" 
>
<path vector-effect="non-scaling-stroke" fill-rule="evenodd" d="M550,334 C550,372.66 518.66,404 480,404 C441.34,404 410,372.66 410,334 C410,295.34 441.34,264 480,264 C518.66,264 550,295.34 550,334 "/>
</g>

<g fill="#ffffff" fill-opacity="1" stroke="#000000" stroke-opacity="1" stroke-width="1" stroke-linecap="square" stroke-linejoin="bevel" transform="matrix(1,0,0,1,0,-76)"
font-family="Helvetica" font-size="8" font-weight="400" font-style="normal" 
>
<path vector-effect="none" fill-rule="evenodd" d="M545,329 C545,367.66 513.66,399 475,399 C436.34,399 405,367.66 405,329 C405,290.34 436.34,259 475,259 C513.66,259 545,290.34 545,329 "/>
</g>

<g fill="none" stroke="#000000" stroke-opacity="1" stroke-width="1" stroke-linecap="square" stroke-linejoin="bevel" transform="matrix(1,0,0,1,0,-76)"
font-family="Helvetica" font-size="8" font-weight="400" font-style="normal" 
>
<text fill="#000000" fill-opacity="1" stroke="none" xml:space="preserve" x="447" y="332" font-family="Helvetica" font-size="8" font-weight="400" font-style="normal" 
 >comprobar_latido</text>
</g>

<g fill="#808080" fill-opacity="1" stroke="none" transform="matrix(1,0,0,1,0,-76)"
font-family="Helvetica" font-size="8" font-weight="400" font-style="normal" 
>
<path vector-effect="non-scaling-stroke" fill-rule="evenodd" d="M372,518 C372,556.66 340.66,588 302,588 C263.34,588 232,556.66 232,518 C232,479.34 263.34,448 302,448 C340.66,448 372,479.34 372,518 "/>
</g>

<g fill="#ffffff" fill-opacity="1" stroke="#000000" stroke-opacity="1" stroke-width="1" stroke-linecap="square" stroke-linejoin="bevel" transform="matrix(1,0,0,1,0,-76)"
font-family="Helvetica" font-size="8" font-weight="400" font-style="normal" 
>
<path vector-effect="none" fill-rule="evenodd" d="M367,513 C367,551.66 335.66,583 297,583 C258.34,583 227,551.66 227,513 C227,474.34 258.34,443 297,443 C335.66,443 367,474.34 367,513 "/>
</g>

<g fill="none" stroke="#000000" stroke-opacity="1" stroke-width="1" stroke-linecap="square" stroke-linejoin="bevel" transform="matrix(1,0,0,1,0,-76)"
font-family="Helvetica" font-size="8" font-weight="400" font-style="normal" 
>
<text fill="#000000" fill-opacity="1" stroke="none" xml:space="preserve" x="272" y="516" font-family="Helvetica" font-size="8" font-weight="400" font-style="normal" 
 >gestion_caidas</text>
</g>

<g fill="#808080" fill-opacity="1" stroke="none" transform="matrix(1,0,0,1,0,-76)"
font-family="Helvetica" font-size="8" font-weight="400" font-style="normal" 
>
<path vector-effect="non-scaling-stroke" fill-rule="evenodd" d="M398,162 C398,200.66 366.66,232 328,232 C289.34,232 258,200.66 258,162 C258,123.34 289.34,92 328,92 C366.66,92 398,123.34 398,162 "/>
</g>

<g fill="#ffffff" fill-opacity="1" stroke="#000000" stroke-opacity="1" stroke-width="1" stroke-linecap="square" stroke-linejoin="bevel" transform="matrix(1,0,0,1,0,-76)"
font-family="Helvetica" font-size="8" font-weight="400" font-style="normal" 
>
<path vector-effect="none" fill-rule="evenodd" d="M393,157 C393,195.66 361.66,227 323,227 C284.34,227 253,195.66 253,157 C253,118.34 284.34,87 323,87 C361.66,87 393,118.34 393,157 "/>
</g>

<g fill="none" stroke="#000000" stroke-opacity="1" stroke-width="1" stroke-linecap="square" stroke-linejoin="bevel" transform="matrix(1,0,0,1,0,-76)"
font-family="Helvetica" font-size="8" font-weight="400" font-style="normal" 
>
<text fill="#000000" fill-opacity="1" stroke="none" xml:space="preserve" x="289.5" y="160" font-family="Helvetica" font-size="8" font-weight="400" font-style="normal" 
 >obtener_vista_valida</text>
</g>

<g fill="#808080" fill-opacity="1" stroke="none" transform="matrix(1,0,0,1,0,-76)"
font-family="Helvetica" font-size="8" font-weight="400" font-style="normal" 
>
<path vector-effect="non-scaling-stroke" fill-rule="evenodd" d="M229,350 C229,388.66 197.66,420 159,420 C120.34,420 89,388.66 89,350 C89,311.34 120.34,280 159,280 C197.66,280 229,311.34 229,350 "/>
</g>

<g fill="#ffffff" fill-opacity="1" stroke="#ff007f" stroke-opacity="1" stroke-width="1" stroke-linecap="square" stroke-linejoin="bevel" transform="matrix(1,0,0,1,0,-76)"
font-family="Helvetica" font-size="8" font-weight="400" font-style="normal" 
>
<path vector-effect="none" fill-rule="evenodd" d="M224,345 C224,383.66 192.66,415 154,415 C115.34,415 84,383.66 84,345 C84,306.34 115.34,275 154,275 C192.66,275 224,306.34 224,345 "/>
</g>

<g fill="none" stroke="#000000" stroke-opacity="1" stroke-width="1" stroke-linecap="square" stroke-linejoin="bevel" transform="matrix(1,0,0,1,0,-76)"
font-family="Helvetica" font-size="8" font-weight="400" font-style="normal" 
>
<text fill="#000000" fill-opacity="1" stroke="none" xml:space="preserve" x="145" y="348" font-family="Helvetica" font-size="8" font-weight="400" font-style="normal" 
 >Initial</text>
</g>

<g fill="none" stroke="#000000" stroke-opacity="1" stroke-width="1" stroke-linecap="square" stroke-linejoin="bevel" transform="matrix(1,0,0,1,0,-76)"
font-family="Helvetica" font-size="8" font-weight="400" font-style="normal" 
>
<path vector-effect="none" fill-rule="evenodd" d="M201,293 C225,264 249,235 273,206 "/>
</g>

<g fill="#000000" fill-opacity="1" stroke="#000000" stroke-opacity="1" stroke-width="1" stroke-linecap="square" stroke-linejoin="bevel" transform="matrix(1,0,0,1,0,-76)"
font-family="Helvetica" font-size="8" font-weight="400" font-style="normal" 
>
<path vector-effect="none" fill-rule="evenodd" d="M260,214 L273,206 L268,220 L260,214"/>
</g>

<g fill="#ffffff" fill-opacity="1" stroke="#ffffff" stroke-opacity="1" stroke-width="1" stroke-linecap="square" stroke-linejoin="bevel" transform="matrix(1,0,0,1,0,-76)"
font-family="Helvetica" font-size="8" font-weight="700" font-style="normal" 
>
<path vector-effect="non-scaling-stroke" fill-rule="evenodd" d="M208,239 L266,239 L266,259 L208,259 L208,239"/>
</g>

<g fill="#ffffff" fill-opacity="1" stroke="#000000" stroke-opacity="1" stroke-width="1" stroke-linecap="square" stroke-linejoin="bevel" transform="matrix(1,0,0,1,0,-76)"
font-family="Helvetica" font-size="8" font-weight="700" font-style="normal" 
>
<text fill="#000000" fill-opacity="1" stroke="none" xml:space="preserve" x="213.5" y="252" font-family="Helvetica" font-size="8" font-weight="700" font-style="normal" 
 >:obten_vista</text>
</g>

<g fill="none" stroke="#000000" stroke-opacity="1" stroke-width="1" stroke-linecap="square" stroke-linejoin="bevel" transform="matrix(1,0,0,1,0,-76)"
font-family="Helvetica" font-size="8" font-weight="700" font-style="normal" 
>
<path vector-effect="none" fill-rule="evenodd" d="M199,398 C224,414 248,431 273,447 "/>
</g>

<g fill="#000000" fill-opacity="1" stroke="#000000" stroke-opacity="1" stroke-width="1" stroke-linecap="square" stroke-linejoin="bevel" transform="matrix(1,0,0,1,0,-76)"
font-family="Helvetica" font-size="8" font-weight="700" font-style="normal" 
>
<path vector-effect="none" fill-rule="evenodd" d="M264,435 L273,447 L259,443 L264,435"/>
</g>

<g fill="#ffffff" fill-opacity="1" stroke="#ffffff" stroke-opacity="1" stroke-width="1" stroke-linecap="square" stroke-linejoin="bevel" transform="matrix(1,0,0,1,0,-76)"
font-family="Helvetica" font-size="8" font-weight="700" font-style="normal" 
>
<path vector-effect="non-scaling-stroke" fill-rule="evenodd" d="M174,412 L298,412 L298,432 L174,432 L174,412"/>
</g>

<g fill="#ffffff" fill-opacity="1" stroke="#000000" stroke-opacity="1" stroke-width="1" stroke-linecap="square" stroke-linejoin="bevel" transform="matrix(1,0,0,1,0,-76)"
font-family="Helvetica" font-size="8" font-weight="700" font-style="normal" 
>
<text fill="#000000" fill-opacity="1" stroke="none" xml:space="preserve" x="179.5" y="425" font-family="Helvetica" font-size="8" font-weight="700" font-style="normal" 
 >:procesa_situacion_servidores</text>
</g>

<g fill="none" stroke="#000000" stroke-opacity="1" stroke-width="1" stroke-linecap="square" stroke-linejoin="bevel" transform="matrix(1,0,0,1,0,-76)"
font-family="Helvetica" font-size="8" font-weight="700" font-style="normal" 
>
<path vector-effect="none" fill-rule="evenodd" d="M224,341 C284,340 345,338 406,337 "/>
</g>

<g fill="#000000" fill-opacity="1" stroke="#000000" stroke-opacity="1" stroke-width="1" stroke-linecap="square" stroke-linejoin="bevel" transform="matrix(1,0,0,1,0,-76)"
font-family="Helvetica" font-size="8" font-weight="700" font-style="normal" 
>
<path vector-effect="none" fill-rule="evenodd" d="M392,332 L406,337 L392,342 L392,332"/>
</g>

<g fill="#ffffff" fill-opacity="1" stroke="#ffffff" stroke-opacity="1" stroke-width="1" stroke-linecap="square" stroke-linejoin="bevel" transform="matrix(1,0,0,1,0,-76)"
font-family="Helvetica" font-size="8" font-weight="700" font-style="normal" 
>
<path vector-effect="non-scaling-stroke" fill-rule="evenodd" d="M298,329 L332,329 L332,349 L298,349 L298,329"/>
</g>

<g fill="#ffffff" fill-opacity="1" stroke="#000000" stroke-opacity="1" stroke-width="1" stroke-linecap="square" stroke-linejoin="bevel" transform="matrix(1,0,0,1,0,-76)"
font-family="Helvetica" font-size="8" font-weight="700" font-style="normal" 
>
<text fill="#000000" fill-opacity="1" stroke="none" xml:space="preserve" x="303" y="342" font-family="Helvetica" font-size="8" font-weight="700" font-style="normal" 
 >:latido</text>
</g>

<g fill="none" stroke="#000000" stroke-opacity="1" stroke-width="1" stroke-linecap="square" stroke-linejoin="bevel" transform="matrix(1,0,0,1,0,-76)"
font-family="Helvetica" font-size="8" font-weight="700" font-style="normal" 
>
<path vector-effect="none" fill-rule="evenodd" d="M253,149 C167,122 105,194 131,278 "/>
</g>

<g fill="#000000" fill-opacity="1" stroke="#000000" stroke-opacity="1" stroke-width="1" stroke-linecap="square" stroke-linejoin="bevel" transform="matrix(1,0,0,1,0,-76)"
font-family="Helvetica" font-size="8" font-weight="700" font-style="normal" 
>
<path vector-effect="none" fill-rule="evenodd" d="M133,263 L131,278 L123,266 L133,263"/>
</g>

<g fill="none" stroke="#000000" stroke-opacity="1" stroke-width="1" stroke-linecap="square" stroke-linejoin="bevel" transform="matrix(1,0,0,1,0,-76)"
font-family="Helvetica" font-size="8" font-weight="700" font-style="normal" 
>
<path vector-effect="none" fill-rule="evenodd" d="M228,522 C151,516 93,458 100,390 "/>
</g>

<g fill="#000000" fill-opacity="1" stroke="#000000" stroke-opacity="1" stroke-width="1" stroke-linecap="square" stroke-linejoin="bevel" transform="matrix(1,0,0,1,0,-76)"
font-family="Helvetica" font-size="8" font-weight="700" font-style="normal" 
>
<path vector-effect="none" fill-rule="evenodd" d="M95,404 L100,390 L105,404 L95,404"/>
</g>

<g fill="none" stroke="#000000" stroke-opacity="1" stroke-width="1" stroke-linecap="square" stroke-linejoin="bevel" transform="matrix(1,0,0,1,0,-76)"
font-family="Helvetica" font-size="8" font-weight="700" font-style="normal" 
>
<path vector-effect="none" fill-rule="evenodd" d="M539,299 C593,272 646,244 700,217 "/>
</g>

<g fill="#000000" fill-opacity="1" stroke="#000000" stroke-opacity="1" stroke-width="1" stroke-linecap="square" stroke-linejoin="bevel" transform="matrix(1,0,0,1,0,-76)"
font-family="Helvetica" font-size="8" font-weight="700" font-style="normal" 
>
<path vector-effect="none" fill-rule="evenodd" d="M685,219 L700,217 L690,228 L685,219"/>
</g>

<g fill="#ffffff" fill-opacity="1" stroke="#ffffff" stroke-opacity="1" stroke-width="1" stroke-linecap="square" stroke-linejoin="bevel" transform="matrix(1,0,0,1,0,-76)"
font-family="Helvetica" font-size="8" font-weight="700" font-style="normal" 
>
<path vector-effect="non-scaling-stroke" fill-rule="evenodd" d="M599,248 L641,248 L641,268 L599,268 L599,248"/>
</g>

<g fill="#ffffff" fill-opacity="1" stroke="#000000" stroke-opacity="1" stroke-width="1" stroke-linecap="square" stroke-linejoin="bevel" transform="matrix(1,0,0,1,0,-76)"
font-family="Helvetica" font-size="8" font-weight="700" font-style="normal" 
>
<text fill="#000000" fill-opacity="1" stroke="none" xml:space="preserve" x="604.5" y="261" font-family="Helvetica" font-size="8" font-weight="700" font-style="normal" 
 >num==0</text>
</g>

<g fill="none" stroke="#000000" stroke-opacity="1" stroke-width="1" stroke-linecap="square" stroke-linejoin="bevel" transform="matrix(1,0,0,1,0,-76)"
font-family="Helvetica" font-size="8" font-weight="700" font-style="normal" 
>
<path vector-effect="none" fill-rule="evenodd" d="M541,353 C593,377 646,400 698,423 "/>
</g>

<g fill="#000000" fill-opacity="1" stroke="#000000" stroke-opacity="1" stroke-width="1" stroke-linecap="square" stroke-linejoin="bevel" transform="matrix(1,0,0,1,0,-76)"
font-family="Helvetica" font-size="8" font-weight="700" font-style="normal" 
>
<path vector-effect="none" fill-rule="evenodd" d="M687,413 L698,423 L683,422 L687,413"/>
</g>

<g fill="#ffffff" fill-opacity="1" stroke="#ffffff" stroke-opacity="1" stroke-width="1" stroke-linecap="square" stroke-linejoin="bevel" transform="matrix(1,0,0,1,0,-76)"
font-family="Helvetica" font-size="8" font-weight="700" font-style="normal" 
>
<path vector-effect="non-scaling-stroke" fill-rule="evenodd" d="M600,378 L638,378 L638,398 L600,398 L600,378"/>
</g>

<g fill="#ffffff" fill-opacity="1" stroke="#000000" stroke-opacity="1" stroke-width="1" stroke-linecap="square" stroke-linejoin="bevel" transform="matrix(1,0,0,1,0,-76)"
font-family="Helvetica" font-size="8" font-weight="700" font-style="normal" 
>
<text fill="#000000" fill-opacity="1" stroke="none" xml:space="preserve" x="605.5" y="391" font-family="Helvetica" font-size="8" font-weight="700" font-style="normal" 
 >num!=0</text>
</g>

<g fill="none" stroke="#000000" stroke-opacity="1" stroke-width="1" stroke-linecap="square" stroke-linejoin="bevel" transform="matrix(1,0,0,1,0,-76)"
font-family="Helvetica" font-size="8" font-weight="700" font-style="normal" 
>
<path vector-effect="none" fill-rule="evenodd" d="M697,186 C537,181 357,236 219,319 "/>
</g>

<g fill="#000000" fill-opacity="1" stroke="#000000" stroke-opacity="1" stroke-width="1" stroke-linecap="square" stroke-linejoin="bevel" transform="matrix(1,0,0,1,0,-76)"
font-family="Helvetica" font-size="8" font-weight="700" font-style="normal" 
>
<path vector-effect="none" fill-rule="evenodd" d="M234,317 L219,319 L229,308 L234,317"/>
</g>

<g fill="none" stroke="#000000" stroke-opacity="1" stroke-width="1" stroke-linecap="square" stroke-linejoin="bevel" transform="matrix(1,0,0,1,0,-76)"
font-family="Helvetica" font-size="8" font-weight="700" font-style="normal" 
>
<path vector-effect="none" fill-rule="evenodd" d="M704,468 C534,479 330,418 219,368 "/>
</g>

<g fill="#000000" fill-opacity="1" stroke="#000000" stroke-opacity="1" stroke-width="1" stroke-linecap="square" stroke-linejoin="bevel" transform="matrix(1,0,0,1,0,-76)"
font-family="Helvetica" font-size="8" font-weight="700" font-style="normal" 
>
<path vector-effect="none" fill-rule="evenodd" d="M230,379 L219,368 L234,369 L230,379"/>
</g>

<g fill="#ffffff" fill-opacity="1" stroke="#000000" stroke-opacity="1" stroke-width="1" stroke-linecap="square" stroke-linejoin="bevel" transform="matrix(1,0,0,1,0,-76)"
font-family="Helvetica" font-size="8" font-weight="700" font-style="normal" 
>
<polyline fill="none" vector-effect="none" points="54,345 84,345 " />
</g>

<g fill="#000000" fill-opacity="1" stroke="#000000" stroke-opacity="1" stroke-width="1" stroke-linecap="square" stroke-linejoin="bevel" transform="matrix(1,0,0,1,0,-76)"
font-family="Helvetica" font-size="8" font-weight="700" font-style="normal" 
>
<path vector-effect="none" fill-rule="evenodd" d="M70,339 L84,345 L70,350 L70,339"/>
</g>

<g fill="#000000" fill-opacity="1" stroke="#000000" stroke-opacity="1" stroke-width="1" stroke-linecap="square" stroke-linejoin="bevel" transform="matrix(1,0,0,1,0,-76)"
font-family="Helvetica" font-size="8" font-weight="700" font-style="normal" 
>
</g>

<g fill="#ffffff" fill-opacity="1" stroke="none" transform="matrix(1,0,0,1,0,-76)"
font-family="Helvetica" font-size="8" font-weight="700" font-style="normal" 
>
<path vector-effect="non-scaling-stroke" fill-rule="evenodd" d="M15,340 L34,340 L34,350 L15,350 L15,340"/>
</g>

<g fill="#000000" fill-opacity="1" stroke="#000000" stroke-opacity="1" stroke-width="1" stroke-linecap="square" stroke-linejoin="bevel" transform="matrix(1,0,0,1,0,-76)"
font-family="Helvetica" font-size="8" font-weight="700" font-style="normal" 
>
<text fill="#000000" fill-opacity="1" stroke="none" xml:space="preserve" x="15" y="348" font-family="Helvetica" font-size="8" font-weight="700" font-style="normal" 
 >rst_n</text>
</g>
</g>
</svg>
